<?xml version="1.0" encoding="UTF-8" standalone="no"?>
<!-- Created with Inkscape (http://www.inkscape.org/) -->

<svg
   width="98.070831mm"
   height="37.391666mm"
   viewBox="-1 -1 107.26053 40.895441"
   version="1.1"
   id="svg5"
   inkscape:version="1.2.2 (b0a8486541, 2022-12-01)"
   sodipodi:docname="square_lattice_theta.svg"
   xmlns:inkscape="http://www.inkscape.org/namespaces/inkscape"
   xmlns:sodipodi="http://sodipodi.sourceforge.net/DTD/sodipodi-0.dtd"
   xmlns="http://www.w3.org/2000/svg"
   xmlns:svg="http://www.w3.org/2000/svg">
  <sodipodi:namedview
     id="namedview7"
     pagecolor="#ffffff"
     bordercolor="#666666"
     borderopacity="1.0"
     inkscape:pageshadow="2"
     inkscape:pageopacity="0.0"
     inkscape:pagecheckerboard="0"
     inkscape:document-units="mm"
     showgrid="true"
     fit-margin-top="0"
     fit-margin-left="0"
     fit-margin-right="0"
     fit-margin-bottom="0"
     inkscape:zoom="3.423371"
     inkscape:cx="186.65812"
     inkscape:cy="60.174606"
     inkscape:window-width="1618"
     inkscape:window-height="1503"
     inkscape:window-x="308"
     inkscape:window-y="110"
     inkscape:window-maximized="0"
     inkscape:current-layer="layer1"
     inkscape:showpageshadow="2"
     inkscape:deskcolor="#d1d1d1">
    <inkscape:grid
       type="xygrid"
       id="grid9"
       originx="-37.427487"
       originy="8.8726789" />
  </sodipodi:namedview>
  <defs
     id="defs2" />
  <g
     inkscape:label="Layer 1"
     inkscape:groupmode="layer"
     id="layer1"
     transform="translate(-37.427479,8.8726838)">
    <path
       style="fill:none;stroke:#000000;stroke-width:0.382797;stroke-dasharray:none"
       d="m 36.618877,-3.8937647 v 5.7875208 5.78752 5.7875209 5.787521 h 5.787521 5.787521 v 5.78752 h 5.787521 v 5.787521 h 5.78752 v -5.787521 -5.78752 h -5.78752 v -5.787521 h 5.78752 5.787521 v 5.787521 5.78752 h 5.787521 v -5.78752 -5.787521 -5.7875209 h 5.787521 v -5.78752 h 5.787521 V -3.8937647 H 77.131523 71.344002 V 1.8937561 H 65.556481 V -3.8937647 -9.6812855 H 59.76896 53.98144 v 5.7875208 h 5.78752 v 5.7875208 h -5.78752 v 5.78752 h -5.787521 -5.787521 v -5.78752 -5.7875208 z"
       id="path283" />
    <path
       style="fill:none;stroke:#000000;stroke-width:0.382797;stroke-dasharray:none"
       d="m 59.76896,1.8937561 v 5.78752 h 5.787521 v 5.7875209"
       id="path285" />
    <ellipse
       style="fill:#e50000;fill-opacity:1;stroke:none;stroke-width:0.192115;stroke-dasharray:none;stroke-opacity:1"
       id="ellipse287"
       cx="65.55648"
       cy="13.468797"
       rx="0.72042841"
       ry="0.72042781" />
    <ellipse
       style="fill:#e50000;fill-opacity:1;stroke:none;stroke-width:0.192115;stroke-dasharray:none;stroke-opacity:1"
       id="path974"
       cx="59.768959"
       cy="1.8937554"
       rx="0.72042841"
       ry="0.72042781" />
    <path
       style="fill:none;stroke:#000000;stroke-width:0.382795;stroke-dasharray:none"
       d="M 114.75041,7.6812763 V 1.8937555 h -5.78752 v -5.7875208 h -5.78752 v 5.7875208 h -5.787528 -5.787521 v 5.7875208 5.7875197 h 5.787521 v 5.787521 5.787521 h 5.787528 v -5.787521 h 5.78752 v 0 -5.787521 -5.7875197 z"
       id="path966" />
    <path
       style="fill:none;stroke:#000000;stroke-width:0.382795;stroke-dasharray:none"
       d="m 114.75041,7.6812763 h 5.78752 v 5.7875197 h -5.78752 v 5.787521 h 5.78752 5.78752 V 13.468796 7.6812763 1.8937555 -3.8937653 h 5.78752 v 5.7875208 h 5.78752 v 5.7875208 h -5.78752 v 5.7875197 h 5.78752 5.78752"
       id="path968" />
    <ellipse
       style="fill:#e50000;fill-opacity:1;stroke:none;stroke-width:0.192115;stroke-dasharray:none;stroke-opacity:1"
       id="ellipse970"
       cx="114.7504"
       cy="7.6812758"
       rx="0.72042841"
       ry="0.72042781" />
  </g>
</svg>
