<?xml version="1.0" encoding="UTF-8" standalone="no"?>
<!-- Created with Inkscape (http://www.inkscape.org/) -->

<svg
   width="34.991016mm"
   height="32.873207mm"
   viewBox="0 0 34.991017 32.873207"
   version="1.1"
   id="svg5"
   inkscape:version="1.1 (c4e8f9ed74, 2021-05-24)"
   sodipodi:docname="honeycomb_lattice.svg"
   xmlns:inkscape="http://www.inkscape.org/namespaces/inkscape"
   xmlns:sodipodi="http://sodipodi.sourceforge.net/DTD/sodipodi-0.dtd"
   xmlns="http://www.w3.org/2000/svg"
   xmlns:svg="http://www.w3.org/2000/svg">
  <sodipodi:namedview
     id="namedview7"
     pagecolor="#ffffff"
     bordercolor="#666666"
     borderopacity="1.0"
     inkscape:pageshadow="2"
     inkscape:pageopacity="0.0"
     inkscape:pagecheckerboard="0"
     inkscape:document-units="mm"
     showgrid="true"
     fit-margin-top="0.1"
     fit-margin-left="0.1"
     fit-margin-right="0.1"
     fit-margin-bottom="0.1"
     inkscape:zoom="4"
     inkscape:cx="157.625"
     inkscape:cy="64"
     inkscape:window-width="1920"
     inkscape:window-height="1011"
     inkscape:window-x="0"
     inkscape:window-y="32"
     inkscape:window-maximized="1"
     inkscape:current-layer="layer1">
    <inkscape:grid
       type="axonomgrid"
       id="grid9"
       originx="-12.815381"
       originy="-7.3133972" />
  </sodipodi:namedview>
  <defs
     id="defs2" />
  <g
     inkscape:label="Layer 1"
     inkscape:groupmode="layer"
     id="layer1"
     transform="translate(-12.815381,-7.3133973)">
    <path
       style="fill:none;stroke:#000000;stroke-width:0.15;stroke-miterlimit:4;stroke-dasharray:none"
       d="m 12.990381,37.499999 4.330127,2.5 4.330127,-2.499999 4.330127,2.5 4.330127,-2.5 4.330127,2.5 4.330127,-2.5 4.330127,2.5 4.330127,-2.5 v -5 L 43.30127,30 38.971143,32.5 34.641016,30 30.310889,32.5 25.980762,30 21.650635,32.5 17.320508,30 12.990381,32.5"
       id="path199" />
    <path
       style="fill:none;stroke:#000000;stroke-width:0.15;stroke-miterlimit:4;stroke-dasharray:none"
       d="m 12.990381,22.499999 4.330127,2.5 4.330127,-2.499999 4.330127,2.5 4.330127,-2.5 4.330127,2.5 4.330127,-2.5 4.330127,2.5 4.330127,-2.5 v -5 L 43.30127,15 38.971143,17.5 34.641016,15 30.310889,17.5 25.980762,15 21.650635,17.5 17.320508,15 12.990381,17.5"
       id="path3086" />
    <path
       style="fill:none;stroke:#000000;stroke-width:0.15;stroke-miterlimit:4;stroke-dasharray:none"
       d="m 12.990381,32.499999 v 4.999999"
       id="path3121" />
    <path
       style="fill:none;stroke:#000000;stroke-width:0.15;stroke-miterlimit:4;stroke-dasharray:none"
       d="m 21.650635,32.499999 v 4.999999"
       id="path3123" />
    <path
       style="fill:none;stroke:#000000;stroke-width:0.15;stroke-miterlimit:4;stroke-dasharray:none"
       d="m 30.310889,32.499999 v 4.999999"
       id="path3125" />
    <path
       style="fill:none;stroke:#000000;stroke-width:0.15;stroke-miterlimit:4;stroke-dasharray:none"
       d="m 38.971143,32.499999 v 4.999999"
       id="path3127" />
    <path
       style="fill:none;stroke:#000000;stroke-width:0.15;stroke-miterlimit:4;stroke-dasharray:none"
       d="m 43.301269,24.999999 v 5"
       id="path3129" />
    <path
       style="fill:none;stroke:#000000;stroke-width:0.15;stroke-miterlimit:4;stroke-dasharray:none"
       d="m 34.641016,24.999999 v 5"
       id="path3131" />
    <path
       style="fill:none;stroke:#000000;stroke-width:0.15;stroke-miterlimit:4;stroke-dasharray:none"
       d="m 25.980762,24.999999 v 5"
       id="path3133" />
    <path
       style="fill:none;stroke:#000000;stroke-width:0.15;stroke-miterlimit:4;stroke-dasharray:none"
       d="m 17.320508,24.999999 v 5"
       id="path3135" />
    <path
       style="fill:none;stroke:#000000;stroke-width:0.15;stroke-miterlimit:4;stroke-dasharray:none"
       d="m 21.650635,17.5 v 5"
       id="path3137" />
    <path
       style="fill:none;stroke:#000000;stroke-width:0.15;stroke-miterlimit:4;stroke-dasharray:none"
       d="m 12.990381,17.5 v 5"
       id="path3139" />
    <path
       style="fill:none;stroke:#000000;stroke-width:0.15;stroke-miterlimit:4;stroke-dasharray:none"
       d="m 30.310889,17.5 v 5"
       id="path3141" />
    <path
       style="fill:none;stroke:#000000;stroke-width:0.15;stroke-miterlimit:4;stroke-dasharray:none"
       d="m 38.971143,17.5 v 5"
       id="path3143" />
    <path
       style="fill:none;stroke:#000000;stroke-width:0.15;stroke-miterlimit:4;stroke-dasharray:none"
       d="M 17.320508,9.9999998 V 15"
       id="path3147" />
    <path
       style="fill:none;stroke:#000000;stroke-width:0.15;stroke-miterlimit:4;stroke-dasharray:none"
       d="M 25.980762,9.9999998 V 15"
       id="path3149" />
    <path
       style="fill:none;stroke:#000000;stroke-width:0.15;stroke-miterlimit:4;stroke-dasharray:none"
       d="M 34.641016,9.9999998 V 15"
       id="path3151" />
    <path
       style="fill:none;stroke:#000000;stroke-width:0.15;stroke-miterlimit:4;stroke-dasharray:none"
       d="M 43.301269,9.9999998 V 15"
       id="path3153" />
    <path
       style="fill:none;stroke:#000000;stroke-width:0.15;stroke-miterlimit:4;stroke-dasharray:none"
       d="m 12.990381,7.4999998 4.330127,2.5 4.330127,-2.5 4.330127,2.5 4.330127,-2.5 4.330127,2.5 4.330127,-2.5 4.330126,2.5 4.330129,-2.5"
       id="path3155" />
  </g>
</svg>
